<svg xmlns="http://www.w3.org/2000/svg" xmlns:xlink="http://www.w3.org/1999/xlink" viewBox="0,0,256,256" width="512px" height="512px" fill-rule="nonzero"><g fill="#03045e" fill-rule="nonzero" stroke="none" stroke-width="1" stroke-linecap="butt" stroke-linejoin="miter" stroke-miterlimit="10" stroke-dasharray="" stroke-dashoffset="0" font-family="none" font-weight="none" font-size="none" text-anchor="none" style="mix-blend-mode: normal"><g transform="scale(3.55556,3.55556)"><path d="M68.78,23.01c-2.6,1.57 -6.52,3.92 -7.74,7.06c-1.02,2.61 -1.11,7.42 -1.04,9.14c0.03,0.72 -0.53,1.29 -1.21,1.29c-0.06,0 -0.12,0 -0.17,-0.01c-1.48,-0.2 -3.32,-0.64 -5.47,-0.64c-2.24,0 -4.81,0.47 -7.66,2.18c-4.6,2.74 -7.16,8.02 -8.43,10.33c-0.23,0.43 -0.65,0.64 -1.06,0.64c-0.41,0 -0.83,-0.21 -1.06,-0.64c-1.27,-2.31 -3.83,-7.59 -8.43,-10.33c-2.85,-1.71 -5.42,-2.18 -7.66,-2.18c-2.15,0 -3.99,0.44 -5.47,0.64c-0.05,0.01 -0.11,0.01 -0.17,0.01c-0.68,0 -1.24,-0.57 -1.21,-1.29c0.07,-1.72 -0.02,-6.53 -1.04,-9.14c-1.22,-3.14 -5.14,-5.49 -7.74,-7.06c-1.09,-0.65 -0.66,-2.34 0.6,-2.34h19.59c0.55,0 1.03,0.38 1.17,0.93c0.42,1.57 1.29,2.91 1.71,3.75c0.15,0.3 0.41,0.53 0.73,0.62c0.56,0.16 2.91,0.49 2.97,0.49c0.59,0 1.11,-0.43 1.21,-1.04l0.77,-2.64c0.1,-0.58 0.31,-0.86 0.61,-0.86c0.22,0 0.49,0.15 0.79,0.46l0.78,0.8h3.7l0.78,-0.8c0.3,-0.31 0.57,-0.46 0.79,-0.46c0.3,0 0.51,0.28 0.61,0.86l0.77,2.64c0.1,0.61 0.62,1.04 1.21,1.04c0.06,0 2.41,-0.33 2.97,-0.49c0.32,-0.09 0.58,-0.32 0.73,-0.62c0.42,-0.84 1.29,-2.18 1.71,-3.75c0.14,-0.55 0.62,-0.93 1.17,-0.93h19.59c1.26,0 1.69,1.69 0.6,2.34z"></path></g></g></svg>