<svg xmlns="http://www.w3.org/2000/svg" width="512" height="512" viewBox="0 0 256 256" style="fill:#000"><path d="M3 0v4h5.688C5.335 5.621 3 9.047 3 13c0 3.953 2.336 7.379 5.688 9H3v4h20v-4h-5.688C20.665 20.379 23 16.953 23 13c0-3.953-2.336-7.379-5.688-9H23V0zm10 6.594A6.39 6.39 0 0 1 19.406 13 6.39 6.39 0 0 1 13 19.406 6.39 6.39 0 0 1 6.594 13 6.39 6.39 0 0 1 13 6.594z" transform="scale(9.84615)" fill="#03045e" fill-rule="evenodd" font-family="none" font-weight="none" font-size="none" text-anchor="none" style="mix-blend-mode:normal"/></svg>