<svg xmlns="http://www.w3.org/2000/svg" width="512" height="512" viewBox="0 0 256 256" style="fill:#000"><path d="M45.959 4.803a.985.985 0 0 0-.283.07L1.86 23.166a.953.953 0 0 0 0 1.76l43.881 18.32a.958.958 0 0 0 1.043-.205.95.95 0 0 0 .205-1.043L39.46 24.064l7.504-17.902a.979.979 0 0 0-.211-1.074.982.982 0 0 0-.793-.285zm-4.281 5.402-4.045 9.652-.541-2.793a1.247 1.247 0 0 0-1.682-.924l-18.47 7.255a.87.87 0 0 0-.012 1.619l20.213 8.304-2.99-5.757-7.737-2.29 10.03.108 5.337 12.55-33.353-13.84zM33.939 19.7l.801 2.783-6.705.043z" transform="scale(5.33333)" fill="#03045e" font-family="none" font-weight="none" font-size="none" text-anchor="none" style="mix-blend-mode:normal"/></svg>