<svg xmlns="http://www.w3.org/2000/svg" xmlns:xlink="http://www.w3.org/1999/xlink" viewBox="0,0,256,256" width="512px" height="512px" fill-rule="nonzero"><g fill="#03045e" fill-rule="nonzero" stroke="none" stroke-width="1" stroke-linecap="butt" stroke-linejoin="miter" stroke-miterlimit="10" stroke-dasharray="" stroke-dashoffset="0" font-family="none" font-weight="none" font-size="none" text-anchor="none" style="mix-blend-mode: normal"><g transform="scale(4,4)"><path d="M10.58594,10l-9.10938,11.99023l30.5625,36.10547l1.52734,-1.80273l29.03711,-34.30273l-9.10937,-11.99023zM12.57031,14h7.50586c-3.6785,1.73624 -9.11473,5.38157 -9.97852,11.98438l-3.49414,-4.12891zM38.56445,14h6.48047c-0.71849,1.25166 -1.51809,2.63905 -2.0918,3.8125c-0.826,-1.29839 -2.18399,-2.77815 -4.38867,-3.8125zM51.03906,14h0.46875l5.96875,7.85547l-6.45703,7.62695c-0.39231,-6.54111 -9.62262,-6.47266 -17.98047,-6.47266c-7.061,0 -11,-0.18353 -11,-2.39453c0,0.233 -0.38237,-5.36466 9.64063,-5.59766c8.883,-0.232 10.136,5.58673 10.25,6.05273c0.113,0.698 0.10937,0.94141 0.10937,0.94141l9,-0.00977zM15.69727,32.59961c4.2317,1.19738 11.99791,1.40625 23.8418,1.40625c1.366,0 1.93072,0.55277 2.38672,1.13477c0.341,0.582 0.22728,1.28128 0.11328,1.86328c-0.456,1.397 -1.609,2.95105 -4,3.99805c-2.05,0.815 -6.886,1 -7,1c-0.456,-2.444 -1.63736,-6.0332 -6.19336,-6.0332c-3.20374,0 -4.67207,0.95415 -5.15039,1.35156zM39.9668,42.53906l-7.92773,9.36523l-6.7793,-8.00977c1.3445,0.28139 3.33185,0.60547 5.7793,0.60547c2.219,0 5.266,-0.336 8,-1.5c0.31703,-0.13503 0.62626,-0.2925 0.92773,-0.46094z"></path></g></g></svg>