<svg xmlns="http://www.w3.org/2000/svg" width="512" height="512" viewBox="0 0 256 256" style="fill:#000"><path d="m16 9-2.656 4.969-1.625-3.219a1.426 1.426 0 0 0-1.25-.781H0l.938 1.406a1.32 1.32 0 0 0 1.125.594H9c.5 0 .945.281 1.188.719L13 18l3-5 3 5 2.781-5.313a1.36 1.36 0 0 1 1.188-.718h6.968a1.32 1.32 0 0 0 1.125-.594L32 9.969H21.531c-.523 0-1.015.316-1.25.781l-1.625 3.219zM1.719 13l.906 1.375c.254.383.695.625 1.156.625h6.469l-.688-1.375A1.41 1.41 0 0 0 8.406 13zM23.5 13c-.46 0-.871.242-1.125.625L21.656 15h6.563c.46 0 .902-.242 1.156-.625L30.281 13zM16 15l-3 5-1.781-3.313A1.41 1.41 0 0 0 10 16H4l.938 1.375A1.35 1.35 0 0 0 6.063 18h2.78c.477 0 .903.254 1.157.656L13 24l3-5.094L19 24l3-5.344c.254-.402.68-.656 1.156-.656h2.782c.46 0 .867-.242 1.125-.625L28 16h-6a1.41 1.41 0 0 0-1.219.688L19 20z" transform="scale(8)" fill="#03045e" font-family="none" font-weight="none" font-size="none" text-anchor="none" style="mix-blend-mode:normal"/></svg>