<svg xmlns="http://www.w3.org/2000/svg" xmlns:xlink="http://www.w3.org/1999/xlink" width="500" zoomAndPan="magnify" viewBox="0 0 375 374.999991" height="500" preserveAspectRatio="xMidYMid meet" version="1.0"><defs><g/><clipPath id="b427a6b1d5"><path d="M 130.769531 86.554688 L 244 86.554688 L 244 222.304688 L 130.769531 222.304688 Z M 130.769531 86.554688 " clip-rule="nonzero"/></clipPath><clipPath id="e7f3e62372"><path d="M 166 106 L 224 106 L 224 181.730469 L 166 181.730469 Z M 166 106 " clip-rule="nonzero"/></clipPath></defs><g clip-path="url(#b427a6b1d5)"><path fill="#03045e" d="M 227.84375 222.167969 C 225.699219 219.765625 223.894531 217.050781 222.402344 214.167969 C 220.921875 211.28125 219.808594 208.171875 219.25 204.933594 C 218.699219 201.699219 218.753906 198.300781 219.660156 195.078125 C 220.550781 191.859375 222.265625 188.863281 224.445312 186.375 C 228.636719 181.570312 232.058594 176.167969 234.648438 170.382812 C 237.226562 164.59375 238.960938 158.441406 239.894531 152.175781 C 240.84375 145.917969 241.023438 139.535156 240.414062 133.25 C 240.105469 130.109375 239.59375 126.992188 238.835938 123.957031 C 238.070312 120.933594 237.074219 117.945312 235.613281 115.351562 C 232.578125 109.875 228.605469 104.945312 223.859375 100.960938 C 219.113281 96.976562 213.546875 94.039062 207.601562 92.398438 C 204.628906 91.582031 201.578125 91.042969 198.488281 90.816406 C 195.410156 90.589844 192.25 90.632812 189.167969 90.886719 C 182.953125 91.425781 176.820312 92.90625 171 95.191406 C 168.085938 96.328125 165.253906 97.671875 162.519531 99.191406 C 159.800781 100.714844 157.136719 102.425781 154.746094 104.304688 L 154.367188 104.609375 L 153.917969 105.015625 C 153.625 105.28125 153.296875 105.5625 153.070312 105.808594 C 152.824219 106.0625 152.574219 106.304688 152.324219 106.570312 L 151.574219 107.414062 C 150.601562 108.570312 149.683594 109.792969 148.847656 111.078125 C 147.179688 113.648438 145.765625 116.417969 144.703125 119.285156 C 144.183594 120.71875 143.746094 122.175781 143.449219 123.628906 L 143.261719 124.71875 L 143.082031 125.917969 L 142.707031 128.332031 C 142.210938 131.511719 141.644531 134.613281 142.078125 137.320312 C 142.1875 137.996094 142.351562 138.648438 142.585938 139.28125 C 142.703125 139.597656 142.839844 139.90625 142.988281 140.210938 C 143.175781 140.625 143.332031 140.910156 143.523438 141.359375 C 143.894531 142.195312 144.214844 143.023438 144.449219 143.972656 C 144.683594 144.910156 144.789062 145.945312 144.738281 146.929688 C 144.691406 147.917969 144.519531 148.808594 144.347656 149.628906 L 144.214844 150.238281 L 144.148438 150.535156 L 144.117188 150.683594 L 144.074219 150.851562 L 144.054688 150.921875 C 143.996094 151.121094 143.960938 151.285156 143.851562 151.578125 C 143.757812 151.835938 143.65625 152.117188 143.570312 152.304688 C 143.207031 153.152344 142.8125 153.898438 142.410156 154.640625 C 142.003906 155.375 141.589844 156.089844 141.164062 156.796875 C 139.46875 159.609375 137.695312 162.3125 135.921875 165.015625 L 134.753906 166.78125 C 134.757812 166.777344 134.6875 166.886719 134.75 166.78125 L 134.632812 166.980469 L 134.613281 167.019531 L 134.609375 167.03125 L 134.59375 167.054688 L 134.542969 167.1875 C 134.511719 167.28125 134.484375 167.375 134.46875 167.476562 C 134.429688 167.679688 134.421875 167.90625 134.449219 168.152344 C 134.554688 169.132812 135.257812 170.242188 136.160156 170.832031 C 136.386719 170.984375 136.621094 171.105469 136.859375 171.195312 C 136.921875 171.222656 136.984375 171.234375 137.042969 171.257812 C 137.109375 171.273438 137 171.25 137.042969 171.257812 L 137.113281 171.277344 L 137.261719 171.316406 C 137.476562 171.363281 137.480469 171.363281 137.671875 171.394531 C 138.28125 171.5 139.015625 171.449219 140.117188 171.613281 C 140.660156 171.703125 141.328125 171.902344 141.917969 172.300781 C 142.203125 172.488281 142.511719 172.773438 142.609375 172.867188 C 142.710938 172.972656 142.824219 173.089844 142.925781 173.199219 C 143.011719 173.304688 143.105469 173.410156 143.191406 173.519531 C 143.890625 174.398438 144.320312 175.527344 144.449219 176.578125 C 144.523438 177.097656 144.511719 177.660156 144.511719 178.011719 C 144.511719 178.402344 144.527344 178.75 144.515625 179.277344 C 144.511719 179.410156 144.503906 179.589844 144.464844 179.824219 C 144.429688 180.058594 144.3125 180.425781 144.148438 180.691406 C 144.070312 180.820312 143.984375 180.9375 143.921875 181.015625 L 143.8125 181.148438 L 143.6875 181.308594 C 143.507812 181.546875 143.324219 181.847656 143.269531 181.976562 L 143.210938 182.117188 L 143.195312 182.171875 C 143.179688 182.203125 143.15625 182.289062 143.140625 182.347656 C 143.105469 182.476562 143.074219 182.609375 143.058594 182.726562 C 143.042969 182.792969 143.042969 182.84375 143.035156 182.898438 L 143.03125 182.972656 L 143.03125 183.003906 C 143.03125 182.992188 143.03125 183.078125 143.027344 182.984375 L 143.039062 183.136719 C 143.039062 183.203125 143.042969 183.171875 143.046875 183.199219 C 143.042969 183.207031 143.0625 183.285156 143.066406 183.335938 C 143.113281 183.558594 143.203125 183.804688 143.304688 183.988281 C 143.355469 184.074219 143.40625 184.148438 143.433594 184.183594 C 143.460938 184.21875 143.464844 184.1875 143.300781 184.121094 L 143.332031 187.207031 C 143.550781 187.09375 143.480469 187.066406 143.429688 187.183594 C 143.371094 187.28125 143.320312 187.484375 143.316406 187.570312 C 143.316406 187.597656 143.308594 187.546875 143.316406 187.671875 L 143.320312 187.710938 L 143.34375 187.78125 C 143.371094 187.851562 143.488281 188.007812 143.671875 188.175781 C 143.765625 188.257812 143.867188 188.34375 143.980469 188.433594 L 144.066406 188.5 L 144.109375 188.53125 L 144.257812 188.644531 L 144.320312 188.703125 C 144.390625 188.769531 144.457031 188.84375 144.515625 188.917969 L 144.597656 189.027344 C 144.644531 189.097656 144.667969 189.140625 144.695312 189.1875 C 144.75 189.28125 144.785156 189.355469 144.816406 189.421875 C 145.054688 189.9375 145.15625 190.304688 145.273438 190.710938 C 145.488281 191.507812 145.648438 192.285156 145.71875 193.160156 C 145.773438 194.003906 145.757812 194.960938 145.449219 195.925781 C 145.300781 196.394531 145.117188 196.773438 144.976562 197.09375 C 144.832031 197.414062 144.714844 197.691406 144.613281 197.988281 L 144.59375 198.042969 L 144.589844 198.050781 C 144.628906 197.925781 144.601562 198.019531 144.609375 197.992188 L 144.601562 198.011719 L 144.59375 198.042969 L 144.554688 198.171875 C 144.527344 198.261719 144.496094 198.359375 144.5 198.382812 L 144.472656 198.519531 L 144.445312 198.710938 C 144.417969 198.96875 144.402344 199.246094 144.425781 199.527344 C 144.457031 200.082031 144.589844 200.671875 144.789062 201.132812 C 144.878906 201.355469 145.011719 201.554688 145.050781 201.59375 L 145.03125 201.578125 L 145.058594 201.601562 L 145.109375 201.648438 L 145.207031 201.742188 L 145.40625 201.925781 L 145.738281 202.207031 C 146.210938 202.585938 146.71875 202.890625 147.277344 203.136719 C 147.550781 203.277344 147.855469 203.363281 148.144531 203.476562 C 148.457031 203.558594 148.753906 203.664062 149.078125 203.730469 C 149.714844 203.875 150.378906 203.984375 151.054688 204.050781 C 151.730469 204.128906 152.425781 204.160156 153.117188 204.1875 C 153.8125 204.195312 154.511719 204.207031 155.21875 204.183594 C 155.921875 204.175781 156.632812 204.121094 157.339844 204.089844 C 158.046875 204.046875 158.757812 203.976562 159.46875 203.917969 L 159.585938 203.910156 L 159.652344 203.910156 C 161.078125 203.957031 162.582031 203.929688 164.050781 203.867188 C 165.527344 203.800781 167.003906 203.691406 168.476562 203.535156 C 171.417969 203.222656 174.339844 202.730469 177.183594 201.980469 C 180.019531 201.230469 182.789062 200.210938 185.300781 198.777344 C 186.550781 198.054688 187.742188 197.230469 188.792969 196.265625 C 189.332031 195.78125 189.789062 195.289062 190.300781 194.710938 C 190.789062 194.160156 191.238281 193.609375 191.695312 193.019531 C 193.480469 190.6875 194.960938 188.101562 196.152344 185.386719 C 197.339844 182.667969 198.257812 179.820312 198.882812 176.898438 C 200.117188 171.054688 200.257812 164.945312 199.1875 159.003906 C 199.878906 161.941406 200.296875 164.953125 200.398438 167.984375 C 200.511719 171.019531 200.304688 174.066406 199.808594 177.074219 C 199.300781 180.078125 198.511719 183.050781 197.390625 185.902344 C 196.269531 188.753906 194.835938 191.5 193.050781 194.023438 C 192.605469 194.648438 192.125 195.28125 191.636719 195.878906 C 191.171875 196.445312 190.621094 197.078125 190.058594 197.617188 C 188.921875 198.726562 187.648438 199.667969 186.316406 200.492188 C 183.644531 202.132812 180.726562 203.261719 177.777344 204.128906 C 174.816406 204.988281 171.796875 205.570312 168.765625 205.96875 C 167.246094 206.167969 165.722656 206.316406 164.195312 206.425781 C 162.660156 206.527344 161.15625 206.59375 159.574219 206.585938 L 159.753906 206.578125 C 159.019531 206.652344 158.285156 206.742188 157.546875 206.808594 C 156.804688 206.863281 156.066406 206.933594 155.320312 206.960938 C 154.574219 207.007812 153.820312 207.007812 153.066406 207.011719 C 152.308594 206.992188 151.546875 206.976562 150.777344 206.902344 C 150.007812 206.839844 149.230469 206.726562 148.453125 206.5625 C 148.0625 206.492188 147.667969 206.367188 147.277344 206.265625 C 146.886719 206.128906 146.492188 206.011719 146.105469 205.835938 C 145.332031 205.511719 144.574219 205.074219 143.90625 204.554688 L 143.398438 204.136719 L 143.195312 203.957031 L 143.09375 203.863281 L 143.042969 203.820312 L 143.019531 203.796875 L 142.953125 203.734375 C 142.480469 203.25 142.246094 202.804688 142.039062 202.367188 C 141.65625 201.496094 141.460938 200.644531 141.386719 199.75 C 141.34375 199.304688 141.351562 198.851562 141.394531 198.386719 L 141.433594 198.035156 L 141.511719 197.636719 C 141.585938 197.316406 141.585938 197.328125 141.691406 196.980469 C 141.949219 196.183594 142.34375 195.421875 142.464844 194.988281 C 142.597656 194.558594 142.613281 194.035156 142.566406 193.425781 C 142.511719 192.855469 142.371094 192.199219 142.191406 191.59375 C 142.109375 191.304688 141.992188 190.972656 141.917969 190.828125 L 141.914062 190.824219 L 141.941406 190.867188 L 141.980469 190.921875 C 142.027344 190.976562 142.078125 191.035156 142.132812 191.082031 L 142.167969 191.113281 L 142.160156 191.109375 L 142.140625 191.089844 C 142.382812 191.28125 142.203125 191.140625 142.253906 191.179688 L 142.175781 191.121094 L 142.039062 191.023438 C 141.863281 190.894531 141.683594 190.75 141.503906 190.589844 C 141.152344 190.269531 140.769531 189.882812 140.457031 189.308594 C 140.304688 189.023438 140.179688 188.6875 140.113281 188.355469 C 140.078125 188.191406 140.058594 188.035156 140.046875 187.855469 C 140.039062 187.796875 140.027344 187.5625 140.039062 187.410156 C 140.074219 186.769531 140.214844 186.253906 140.480469 185.703125 C 140.617188 185.429688 140.789062 185.152344 141.035156 184.875 C 141.28125 184.601562 141.613281 184.324219 142.054688 184.132812 L 142.089844 187.21875 C 141.546875 187 141.234375 186.707031 140.988281 186.445312 C 140.746094 186.183594 140.566406 185.921875 140.414062 185.664062 C 140.117188 185.148438 139.917969 184.628906 139.785156 184.066406 C 139.753906 183.917969 139.726562 183.800781 139.703125 183.609375 C 139.691406 183.535156 139.675781 183.40625 139.675781 183.375 L 139.664062 183.222656 C 139.65625 183.074219 139.660156 183.113281 139.660156 183.050781 L 139.65625 182.933594 C 139.660156 182.855469 139.65625 182.773438 139.664062 182.703125 C 139.675781 182.554688 139.683594 182.40625 139.703125 182.269531 C 139.738281 181.992188 139.796875 181.730469 139.859375 181.46875 C 139.898438 181.332031 139.925781 181.222656 139.980469 181.0625 L 140.058594 180.835938 L 140.117188 180.691406 C 140.375 180.078125 140.632812 179.699219 140.917969 179.285156 C 141.015625 179.144531 141.378906 178.679688 141.191406 178.9375 C 141.128906 179.027344 141.078125 179.203125 141.074219 179.238281 C 141.066406 179.273438 141.070312 179.25 141.070312 179.183594 L 141.050781 178.03125 C 141.046875 177.574219 141.046875 177.332031 141.003906 177.046875 C 140.925781 176.5 140.746094 176.074219 140.441406 175.691406 C 140.402344 175.644531 140.359375 175.597656 140.320312 175.550781 L 140.21875 175.441406 C 140.023438 175.257812 140.03125 175.277344 139.980469 175.238281 C 139.898438 175.1875 139.785156 175.140625 139.535156 175.101562 C 139.042969 175.015625 138.15625 175.050781 137.175781 174.917969 C 136.96875 174.898438 136.578125 174.820312 136.398438 174.777344 L 136.253906 174.742188 L 136.179688 174.722656 L 136.03125 174.679688 C 135.902344 174.640625 135.769531 174.601562 135.640625 174.554688 C 135.125 174.367188 134.640625 174.121094 134.195312 173.828125 C 133.300781 173.242188 132.558594 172.480469 131.984375 171.601562 C 131.410156 170.726562 130.996094 169.722656 130.847656 168.601562 C 130.777344 168.046875 130.777344 167.460938 130.875 166.867188 C 130.921875 166.570312 131 166.277344 131.09375 165.984375 C 131.148438 165.839844 131.207031 165.699219 131.265625 165.554688 L 131.386719 165.308594 L 131.449219 165.1875 C 131.46875 165.140625 131.488281 165.109375 131.5 165.09375 L 131.574219 164.964844 L 131.691406 164.773438 L 132.183594 164.011719 L 132.835938 162.996094 C 134.574219 160.292969 136.308594 157.585938 137.910156 154.859375 C 138.695312 153.507812 139.488281 152.109375 140.03125 150.816406 C 140.113281 150.636719 140.140625 150.535156 140.1875 150.414062 C 140.230469 150.332031 140.289062 150.105469 140.339844 149.914062 L 140.359375 149.839844 C 140.371094 149.796875 140.328125 149.972656 140.355469 149.859375 L 140.382812 149.714844 L 140.445312 149.421875 L 140.566406 148.847656 C 140.71875 148.089844 140.835938 147.386719 140.855469 146.761719 C 140.878906 146.132812 140.8125 145.550781 140.652344 144.921875 C 140.5 144.308594 140.238281 143.621094 139.953125 142.992188 C 139.832031 142.695312 139.609375 142.269531 139.460938 141.945312 C 139.257812 141.527344 139.066406 141.101562 138.90625 140.660156 C 138.574219 139.78125 138.339844 138.863281 138.1875 137.949219 C 137.890625 136.109375 137.945312 134.3125 138.105469 132.617188 C 138.269531 130.917969 138.535156 129.300781 138.78125 127.707031 L 139.140625 125.339844 L 139.3125 124.148438 L 139.53125 122.847656 C 139.875 121.144531 140.367188 119.503906 140.941406 117.902344 C 142.109375 114.714844 143.632812 111.707031 145.460938 108.863281 C 146.378906 107.445312 147.390625 106.078125 148.492188 104.769531 L 149.34375 103.804688 C 149.640625 103.480469 149.96875 103.15625 150.28125 102.839844 C 150.609375 102.496094 150.894531 102.253906 151.195312 101.980469 L 151.644531 101.574219 L 152.199219 101.113281 C 154.859375 98.996094 157.648438 97.234375 160.546875 95.621094 C 163.449219 94.023438 166.449219 92.613281 169.539062 91.421875 C 175.707031 89.023438 182.21875 87.472656 188.835938 86.925781 C 192.164062 86.660156 195.453125 86.625 198.792969 86.886719 C 202.125 87.136719 205.4375 87.734375 208.65625 88.667969 C 215.105469 90.519531 221.148438 93.792969 226.222656 98.15625 C 231.300781 102.507812 235.484375 107.839844 238.636719 113.664062 C 239.476562 115.183594 240.125 116.773438 240.671875 118.363281 C 241.21875 119.953125 241.664062 121.5625 242.039062 123.179688 C 242.785156 126.414062 243.261719 129.691406 243.527344 132.972656 C 244.046875 139.539062 243.746094 146.148438 242.640625 152.625 C 241.507812 159.09375 239.558594 165.425781 236.742188 171.351562 C 235.324219 174.3125 233.714844 177.175781 231.875 179.886719 C 230.957031 181.246094 229.988281 182.566406 228.96875 183.84375 C 227.953125 185.113281 226.863281 186.382812 225.777344 187.554688 C 223.625 189.832031 221.960938 192.507812 221.011719 195.484375 C 220.066406 198.449219 219.839844 201.648438 220.230469 204.789062 C 220.617188 207.933594 221.585938 211.011719 222.882812 213.9375 C 224.195312 216.855469 225.835938 219.648438 227.84375 222.167969 " fill-opacity="1" fill-rule="nonzero"/></g><g clip-path="url(#e7f3e62372)"><path fill="#03045e" d="M 216.667969 113.171875 C 211.332031 110.558594 205.671875 108.617188 199.816406 107.546875 C 194.078125 106.5 187.929688 105.988281 182.246094 107.589844 C 177.550781 108.910156 173.054688 111.859375 170.453125 116.023438 C 169.132812 118.136719 168.523438 120.664062 169.65625 122.992188 C 170.71875 125.175781 172.707031 127.121094 174.574219 128.640625 C 178.226562 131.609375 182.648438 133.402344 187.222656 134.417969 C 191.984375 135.472656 196.992188 135.933594 201.867188 135.800781 C 206.871094 135.660156 211.910156 134.695312 216.332031 132.28125 C 220.320312 130.101562 225.15625 126.183594 222.101562 121.316406 C 216.753906 112.804688 206.664062 108.992188 196.988281 108.179688 C 186.371094 107.285156 174.867188 111.054688 168.792969 120.226562 C 162.160156 130.238281 173.253906 140.582031 181.773438 144.617188 C 190.679688 148.835938 201.980469 149.207031 210.695312 144.21875 C 214.652344 141.957031 217.601562 138.148438 217.527344 133.460938 C 217.441406 128.171875 214.089844 123.964844 209.890625 121.058594 C 201.078125 114.964844 189.613281 111.457031 179.230469 115.605469 C 174.886719 117.34375 169.917969 120.492188 168.136719 125.007812 C 166.253906 129.785156 168.5625 135.210938 172.492188 138.203125 C 176.808594 141.484375 182.539062 142.585938 187.855469 142.886719 C 192.953125 143.179688 198.167969 142.53125 202.929688 140.640625 C 205.355469 139.675781 207.648438 138.417969 209.738281 136.855469 C 211.589844 135.472656 213.464844 133.867188 214.214844 131.613281 C 215.847656 126.734375 210.230469 122.53125 206.460938 120.621094 C 201.777344 118.246094 196.410156 117.871094 191.363281 119.242188 C 186.324219 120.609375 181.007812 123.402344 178.597656 128.210938 C 176.3125 132.765625 176.277344 138.488281 178.808594 142.957031 C 181.347656 147.441406 186.238281 149.136719 191.070312 149.976562 C 196.714844 150.960938 202.902344 151.011719 208.457031 149.441406 C 210.640625 148.824219 213.171875 147.714844 214.511719 145.804688 C 215.082031 144.992188 215.367188 143.921875 214.820312 143.027344 C 214.214844 142.042969 212.820312 141.339844 211.824219 140.835938 C 207.554688 138.691406 202.132812 138.21875 197.429688 138.785156 C 192.777344 139.347656 188.351562 141.191406 184.957031 144.445312 C 183.4375 145.902344 181.722656 147.8125 182.566406 150.0625 C 183.332031 152.109375 185.558594 152.949219 187.472656 153.582031 C 192.90625 155.382812 198.820312 155.742188 204.425781 154.542969 C 206.953125 154.003906 209.417969 153.066406 211.457031 151.460938 C 213.203125 150.085938 213.605469 148.007812 211.710938 146.519531 C 209.679688 144.921875 206.851562 144.621094 204.367188 144.378906 C 201.253906 144.078125 198.117188 144.03125 194.996094 144.242188 C 189.722656 144.597656 183.992188 145.425781 180.492188 149.785156 C 179.300781 151.269531 177.59375 153.867188 178.820312 155.765625 C 179.285156 156.488281 180.078125 156.875 180.863281 157.164062 C 182.328125 157.707031 183.882812 158.050781 185.425781 158.28125 C 191.125 159.136719 196.875 158.253906 202.507812 157.363281 C 202.394531 156.957031 202.28125 156.550781 202.171875 156.144531 C 199.542969 156.882812 196.964844 157.769531 194.445312 158.816406 C 192.644531 159.566406 190.542969 160.253906 190.003906 162.332031 C 189.890625 162.765625 190.207031 163.089844 190.617188 163.132812 C 195.5625 163.671875 200.460938 162.625 204.84375 160.320312 C 205.304688 160.078125 205.234375 159.265625 204.691406 159.167969 C 199.480469 158.222656 194.378906 160.167969 190.175781 163.152344 C 188.394531 164.414062 186.546875 166.152344 186.445312 168.472656 C 186.34375 170.816406 188.132812 172.132812 190.101562 172.9375 C 195.21875 175.027344 201.238281 175.304688 206.449219 173.351562 C 208.117188 172.726562 209.707031 171.335938 209.167969 169.378906 C 208.597656 167.308594 205.964844 166.535156 204.140625 166.046875 C 199.222656 164.734375 191.730469 165.246094 188.960938 170.203125 C 188.828125 170.4375 188.847656 170.78125 189.058594 170.96875 C 190.972656 172.671875 193.546875 172.820312 196.003906 172.894531 C 198.992188 172.984375 201.972656 172.671875 204.894531 172.042969 C 205.695312 171.871094 205.355469 170.660156 204.554688 170.824219 C 200.234375 171.710938 196.242188 173.632812 192.753906 176.296875 C 192.414062 176.554688 192.273438 177.160156 192.753906 177.386719 C 196.5 179.160156 200.539062 178.554688 204.46875 177.816406 C 205.277344 177.664062 204.929688 176.460938 204.128906 176.597656 C 201.023438 177.140625 198.128906 178.371094 195.527344 180.125 C 195.09375 180.417969 195.117188 181.140625 195.679688 181.28125 C 197.484375 181.734375 199.269531 181.71875 201.066406 181.226562 C 201.855469 181.011719 201.523438 179.789062 200.730469 180.007812 C 199.148438 180.441406 197.605469 180.460938 196.015625 180.0625 C 196.066406 180.449219 196.117188 180.832031 196.167969 181.21875 C 198.691406 179.515625 201.460938 178.339844 204.46875 177.816406 C 204.355469 177.410156 204.242188 177.003906 204.128906 176.597656 C 200.574219 177.265625 196.800781 177.90625 193.398438 176.296875 C 193.398438 176.660156 193.398438 177.023438 193.398438 177.386719 C 196.808594 174.785156 200.667969 172.910156 204.894531 172.042969 C 204.78125 171.636719 204.667969 171.230469 204.554688 170.824219 C 202.003906 171.375 199.414062 171.664062 196.800781 171.644531 C 194.519531 171.628906 191.761719 171.675781 189.960938 170.074219 C 189.992188 170.332031 190.027344 170.585938 190.0625 170.839844 C 192.054688 167.273438 197.070312 166.472656 200.8125 166.753906 C 202.820312 166.902344 205.304688 167.367188 206.988281 168.53125 C 207.824219 169.105469 208.328125 170.101562 207.703125 171.03125 C 207.1875 171.796875 206.222656 172.113281 205.382812 172.378906 C 201.179688 173.710938 196.652344 173.726562 192.441406 172.433594 C 190.726562 171.910156 188.09375 171.183594 187.746094 169.113281 C 187.375 166.902344 189.511719 165.140625 191.121094 164.03125 C 194.964844 161.378906 199.617188 159.527344 204.351562 160.386719 C 204.300781 160 204.253906 159.613281 204.199219 159.230469 C 200.003906 161.433594 195.34375 162.386719 190.617188 161.871094 C 190.820312 162.136719 191.027344 162.402344 191.230469 162.667969 C 191.730469 160.75 194.660156 160.0625 196.273438 159.4375 C 198.316406 158.640625 200.398438 157.957031 202.507812 157.363281 C 203.316406 157.140625 202.960938 156.019531 202.171875 156.144531 C 196.964844 156.964844 191.640625 157.792969 186.367188 157.144531 C 185.132812 156.992188 183.910156 156.75 182.710938 156.421875 C 181.671875 156.132812 179.96875 155.828125 179.707031 154.585938 C 179.480469 153.507812 180.339844 152.210938 180.914062 151.347656 C 181.53125 150.414062 182.304688 149.582031 183.179688 148.875 C 187.160156 145.65625 193.148438 145.449219 198.054688 145.382812 C 200.71875 145.347656 203.414062 145.464844 206.054688 145.835938 C 207.496094 146.039062 213.082031 147.160156 211.523438 149.636719 C 210.9375 150.570312 209.667969 151.230469 208.710938 151.734375 C 207.570312 152.335938 206.351562 152.765625 205.101562 153.085938 C 202.683594 153.714844 200.167969 153.988281 197.671875 153.980469 C 195.097656 153.976562 192.539062 153.648438 190.046875 153.015625 C 188.089844 152.523438 185.097656 151.949219 183.972656 150.058594 C 182.679688 147.882812 185.332031 145.722656 186.835938 144.464844 C 188.433594 143.128906 190.28125 142.0625 192.234375 141.324219 C 196.121094 139.851562 200.375 139.578125 204.476562 140.09375 C 206.828125 140.386719 209.222656 140.914062 211.339844 142.011719 C 212.378906 142.550781 214.417969 143.4375 213.601562 144.882812 C 213.011719 145.921875 211.761719 146.675781 210.730469 147.214844 C 208.589844 148.332031 206.109375 148.761719 203.734375 149.054688 C 201.058594 149.382812 198.351562 149.453125 195.664062 149.269531 C 191.199219 148.964844 185.863281 148.222656 182.324219 145.242188 C 178.609375 142.113281 177.492188 136.667969 178.542969 132.097656 C 179.054688 129.875 180.058594 127.707031 181.617188 126.007812 C 183.332031 124.140625 185.652344 122.835938 187.953125 121.804688 C 192.410156 119.808594 197.460938 119.046875 202.230469 120.335938 C 204.46875 120.941406 206.574219 121.964844 208.449219 123.3125 C 210.265625 124.621094 212.46875 126.460938 213.074219 128.699219 C 213.71875 131.070312 212.191406 133.152344 210.488281 134.640625 C 208.726562 136.179688 206.726562 137.46875 204.628906 138.511719 C 200.472656 140.566406 195.84375 141.550781 191.21875 141.675781 C 186.433594 141.804688 181.363281 141.222656 176.945312 139.308594 C 172.535156 137.394531 168.875 133.769531 168.765625 128.734375 C 168.660156 123.792969 172.925781 120.292969 176.917969 118.089844 C 185.675781 113.257812 195.929688 114.742188 204.472656 119.265625 C 208.574219 121.4375 212.941406 124.136719 215.019531 128.441406 C 217.101562 132.75 216.46875 137.6875 212.941406 141.019531 C 209.949219 143.847656 205.699219 145.289062 201.714844 146.058594 C 197.257812 146.921875 192.613281 146.746094 188.21875 145.617188 C 183.671875 144.453125 179.382812 142.285156 175.730469 139.363281 C 172.039062 136.410156 168.496094 132.230469 168.082031 127.351562 C 167.664062 122.433594 171.371094 118.371094 174.980469 115.484375 C 178.539062 112.640625 182.789062 110.742188 187.269531 109.875 C 192.425781 108.875 197.832031 109.21875 202.9375 110.355469 C 206.917969 111.242188 210.773438 112.710938 214.15625 114.996094 C 215.984375 116.230469 217.644531 117.707031 219.078125 119.375 C 220.582031 121.125 222.535156 123.410156 221.597656 125.847656 C 220.800781 127.921875 218.691406 129.367188 216.871094 130.5 C 214.914062 131.714844 212.792969 132.632812 210.574219 133.273438 C 206.292969 134.511719 201.785156 134.707031 197.351562 134.464844 C 193.199219 134.234375 189.015625 133.714844 185.015625 132.546875 C 180.996094 131.375 177.1875 129.464844 174.140625 126.574219 C 172.46875 124.984375 170.355469 122.875 170.308594 120.4375 C 170.257812 117.9375 172.0625 115.667969 173.730469 113.976562 C 181.03125 106.566406 192.324219 107.132812 201.753906 109.226562 C 206.699219 110.324219 211.480469 112.039062 216.023438 114.261719 C 216.753906 114.621094 217.402344 113.53125 216.667969 113.171875 " fill-opacity="1" fill-rule="nonzero"/></g><g fill="#03045e" fill-opacity="1"><g transform="translate(165.58582, 232.732763)"><g><path d="M 27.171875 2.40625 C 27.296875 2.507812 27.347656 2.625 27.328125 2.75 C 27.316406 2.875 27.285156 2.984375 27.234375 3.078125 C 27.234375 3.097656 27.234375 3.109375 27.234375 3.109375 C 26.816406 4.085938 26.1875 4.828125 25.34375 5.328125 C 24.507812 5.828125 23.503906 6.035156 22.328125 5.953125 C 21.191406 5.847656 20.300781 5.453125 19.65625 4.765625 C 19.007812 4.085938 18.640625 3.175781 18.546875 2.03125 C 18.503906 1.46875 18.523438 0.910156 18.609375 0.359375 C 18.691406 -0.191406 18.800781 -0.742188 18.9375 -1.296875 C 19.019531 -1.640625 19.101562 -1.984375 19.1875 -2.328125 C 19.34375 -2.898438 19.476562 -3.484375 19.59375 -4.078125 C 19.769531 -4.992188 19.675781 -5.628906 19.3125 -5.984375 C 18.945312 -6.347656 18.429688 -6.539062 17.765625 -6.5625 C 17.097656 -6.582031 16.421875 -6.546875 15.734375 -6.453125 C 15.335938 -6.410156 14.976562 -6.382812 14.65625 -6.375 C 14.53125 -6.375 14.429688 -6.335938 14.359375 -6.265625 C 14.285156 -6.191406 14.21875 -6.113281 14.15625 -6.03125 C 13.8125 -5.414062 13.476562 -4.789062 13.15625 -4.15625 C 10.113281 1.570312 6.816406 7.148438 3.265625 12.578125 C 2.722656 13.398438 2.160156 14.21875 1.578125 15.03125 C 1.441406 15.226562 1.289062 15.398438 1.125 15.546875 C 0.96875 15.703125 0.769531 15.816406 0.53125 15.890625 C 0.101562 16.015625 -0.234375 15.984375 -0.484375 15.796875 C -0.734375 15.617188 -0.847656 15.304688 -0.828125 14.859375 C -0.804688 14.328125 -0.726562 13.796875 -0.59375 13.265625 C 0.175781 10.023438 1.171875 7.253906 2.390625 4.953125 C 3.617188 2.648438 5.097656 0.566406 6.828125 -1.296875 C 8.566406 -3.160156 10.566406 -5.039062 12.828125 -6.9375 C 13.191406 -7.21875 13.476562 -7.566406 13.6875 -7.984375 C 13.988281 -8.554688 14.289062 -9.128906 14.59375 -9.703125 C 15.695312 -11.835938 16.785156 -13.972656 17.859375 -16.109375 C 18.929688 -18.253906 19.945312 -20.425781 20.90625 -22.625 C 21.851562 -24.8125 22.335938 -26.445312 22.359375 -27.53125 C 22.390625 -28.613281 21.890625 -29.1875 20.859375 -29.25 C 19.828125 -29.3125 18.203125 -28.898438 15.984375 -28.015625 C 13.804688 -27.140625 11.675781 -26.164062 9.59375 -25.09375 C 7.507812 -24.019531 5.457031 -22.875 3.4375 -21.65625 C 2.6875 -21.207031 1.753906 -20.617188 0.640625 -19.890625 C -0.472656 -19.160156 -1.566406 -18.375 -2.640625 -17.53125 C -3.722656 -16.6875 -4.617188 -15.859375 -5.328125 -15.046875 C -5.835938 -14.429688 -5.960938 -14.015625 -5.703125 -13.796875 C -5.453125 -13.578125 -4.9375 -13.453125 -4.15625 -13.421875 C -3.789062 -13.410156 -3.160156 -13.40625 -2.265625 -13.40625 C -1.367188 -13.414062 -0.367188 -13.460938 0.734375 -13.546875 C 1.347656 -13.585938 1.953125 -13.632812 2.546875 -13.6875 C 3.429688 -13.769531 4.1875 -13.820312 4.8125 -13.84375 C 5.445312 -13.875 5.820312 -13.835938 5.9375 -13.734375 C 5.976562 -13.628906 5.539062 -13.507812 4.625 -13.375 C 3.707031 -13.238281 2.578125 -13.113281 1.234375 -13 C -0.0976562 -12.882812 -1.394531 -12.8125 -2.65625 -12.78125 C -3.914062 -12.757812 -4.867188 -12.8125 -5.515625 -12.9375 C -6.648438 -13.175781 -7.164062 -13.613281 -7.0625 -14.25 C -6.96875 -14.882812 -6.425781 -15.648438 -5.4375 -16.546875 C -4.445312 -17.453125 -3.1875 -18.410156 -1.65625 -19.421875 C -0.125 -20.441406 1.515625 -21.457031 3.265625 -22.46875 C 5.023438 -23.488281 6.722656 -24.429688 8.359375 -25.296875 C 10.003906 -26.160156 11.421875 -26.878906 12.609375 -27.453125 C 13.796875 -28.023438 14.597656 -28.394531 15.015625 -28.5625 C 16.722656 -29.25 18.222656 -29.710938 19.515625 -29.953125 C 20.816406 -30.203125 21.832031 -30.140625 22.5625 -29.765625 C 23.289062 -29.390625 23.660156 -28.628906 23.671875 -27.484375 C 23.679688 -26.335938 23.25 -24.722656 22.375 -22.640625 C 21.664062 -20.972656 20.914062 -19.328125 20.125 -17.703125 C 19.332031 -16.078125 18.523438 -14.457031 17.703125 -12.84375 C 17.390625 -12.226562 17.066406 -11.585938 16.734375 -10.921875 C 16.554688 -10.566406 16.359375 -10.1875 16.140625 -9.78125 C 16.378906 -9.84375 16.570312 -9.921875 16.71875 -10.015625 C 16.875 -10.109375 17.007812 -10.203125 17.125 -10.296875 C 17.1875 -10.347656 17.253906 -10.394531 17.328125 -10.4375 C 20.191406 -12.53125 23.316406 -14.640625 26.703125 -16.765625 C 30.097656 -18.890625 33.664062 -20.867188 37.40625 -22.703125 C 41.144531 -24.546875 44.96875 -26.078125 48.875 -27.296875 C 52.789062 -28.515625 56.695312 -29.265625 60.59375 -29.546875 C 64.488281 -29.835938 68.289062 -29.5 72 -28.53125 C 72.039062 -28.507812 72.082031 -28.46875 72.125 -28.40625 C 72.164062 -28.351562 72.1875 -28.300781 72.1875 -28.25 C 72.1875 -28.15625 72.15625 -28.082031 72.09375 -28.03125 C 72.03125 -27.988281 71.945312 -27.96875 71.84375 -27.96875 C 71.769531 -27.945312 71.691406 -27.953125 71.609375 -27.984375 C 68.515625 -28.785156 65.304688 -29.09375 61.984375 -28.90625 C 58.671875 -28.726562 55.3125 -28.171875 51.90625 -27.234375 C 48.5 -26.304688 45.125 -25.109375 41.78125 -23.640625 C 38.4375 -22.179688 35.195312 -20.570312 32.0625 -18.8125 C 28.9375 -17.050781 25.992188 -15.242188 23.234375 -13.390625 C 20.484375 -11.546875 17.988281 -9.769531 15.75 -8.0625 C 15.738281 -8.050781 15.734375 -8.046875 15.734375 -8.046875 C 15.554688 -7.929688 15.390625 -7.800781 15.234375 -7.65625 C 15.078125 -7.519531 15.003906 -7.398438 15.015625 -7.296875 C 15.035156 -7.203125 15.21875 -7.160156 15.5625 -7.171875 C 15.664062 -7.171875 15.765625 -7.171875 15.859375 -7.171875 C 16.492188 -7.222656 17.15625 -7.238281 17.84375 -7.21875 C 18.539062 -7.195312 19.175781 -7.078125 19.75 -6.859375 C 20.582031 -6.515625 21 -5.898438 21 -5.015625 C 20.988281 -4.597656 20.9375 -4.191406 20.84375 -3.796875 C 20.695312 -3.128906 20.546875 -2.46875 20.390625 -1.8125 C 20.234375 -1.101562 20.078125 -0.378906 19.921875 0.359375 C 19.734375 1.210938 19.765625 2.070312 20.015625 2.9375 C 20.253906 3.675781 20.628906 4.25 21.140625 4.65625 C 21.660156 5.070312 22.25 5.285156 22.90625 5.296875 C 23.5625 5.316406 24.222656 5.113281 24.890625 4.6875 C 25.367188 4.363281 25.757812 3.941406 26.0625 3.421875 C 26.125 3.304688 26.179688 3.191406 26.234375 3.078125 C 26.273438 2.960938 26.328125 2.851562 26.390625 2.75 C 26.503906 2.570312 26.632812 2.445312 26.78125 2.375 C 26.9375 2.3125 27.066406 2.320312 27.171875 2.40625 Z M 11.34375 -3.609375 C 11.363281 -3.628906 11.390625 -3.664062 11.421875 -3.71875 C 11.472656 -3.8125 11.535156 -3.925781 11.609375 -4.0625 C 11.691406 -4.207031 11.753906 -4.34375 11.796875 -4.46875 C 11.835938 -4.601562 11.84375 -4.6875 11.8125 -4.71875 C 11.78125 -4.75 11.675781 -4.691406 11.5 -4.546875 C 8.582031 -2.253906 6.285156 0.316406 4.609375 3.171875 C 2.941406 6.035156 1.691406 9.316406 0.859375 13.015625 C 0.785156 13.335938 0.773438 13.515625 0.828125 13.546875 C 0.890625 13.585938 0.984375 13.539062 1.109375 13.40625 C 1.242188 13.269531 1.375 13.113281 1.5 12.9375 C 1.625 12.757812 1.710938 12.632812 1.765625 12.5625 C 3.472656 9.925781 5.125 7.265625 6.71875 4.578125 C 8.320312 1.890625 9.863281 -0.835938 11.34375 -3.609375 Z M 11.34375 -3.609375 "/></g></g></g><g fill="#03045e" fill-opacity="1"><g transform="translate(189.619395, 232.732763)"><g><path d="M 0.25 -1.734375 C -0.375 -1.734375 -0.6875 -2.054688 -0.6875 -2.703125 C -0.6875 -3.484375 -0.175781 -4.867188 0.84375 -6.859375 C 0.882812 -6.953125 0.957031 -7 1.0625 -7 C 1.476562 -7 1.6875 -6.832031 1.6875 -6.5 C 1.6875 -6.382812 1.648438 -6.242188 1.578125 -6.078125 C 1.546875 -6.023438 1.203125 -5.164062 0.546875 -3.5 C 0.441406 -3.226562 0.390625 -3.023438 0.390625 -2.890625 C 0.390625 -2.742188 0.457031 -2.671875 0.59375 -2.671875 C 1.0625 -2.671875 2.304688 -3.851562 4.328125 -6.21875 C 4.585938 -6.539062 4.84375 -6.703125 5.09375 -6.703125 C 5.46875 -6.703125 5.65625 -6.566406 5.65625 -6.296875 C 5.65625 -6.191406 5.539062 -5.796875 5.3125 -5.109375 C 5 -4.179688 4.84375 -3.644531 4.84375 -3.5 C 4.84375 -3.28125 4.914062 -3.171875 5.0625 -3.171875 C 5.414062 -3.171875 6.457031 -3.8125 8.1875 -5.09375 C 8.289062 -5.175781 8.378906 -5.21875 8.453125 -5.21875 C 8.609375 -5.21875 8.6875 -5.082031 8.6875 -4.8125 C 8.6875 -4.738281 8.664062 -4.675781 8.625 -4.625 C 7.707031 -3.84375 6.925781 -3.242188 6.28125 -2.828125 C 5.695312 -2.453125 5.175781 -2.265625 4.71875 -2.265625 L 4.578125 -2.265625 C 3.910156 -2.410156 3.578125 -2.9375 3.578125 -3.84375 C 2.859375 -3.207031 2.257812 -2.695312 1.78125 -2.3125 C 1.3125 -1.925781 0.800781 -1.734375 0.25 -1.734375 Z M 0.25 -1.734375 "/></g></g></g><g fill="#03045e" fill-opacity="1"><g transform="translate(197.643602, 232.732763)"><g><path d="M 4.734375 -4.953125 C 3.703125 -4.566406 2.957031 -4.253906 2.5 -4.015625 C 2.164062 -3.847656 1.972656 -3.710938 1.921875 -3.609375 C 1.878906 -3.503906 1.921875 -3.304688 2.046875 -3.015625 C 2.046875 -3.003906 2.054688 -2.984375 2.078125 -2.953125 C 2.210938 -2.609375 2.296875 -2.253906 2.328125 -1.890625 C 2.367188 -1.140625 1.726562 -0.613281 0.40625 -0.3125 C -0.90625 -0.0078125 -1.785156 0 -2.234375 -0.28125 C -2.679688 -0.5625 -2.816406 -0.914062 -2.640625 -1.34375 C -2.472656 -1.78125 -2.023438 -2.21875 -1.296875 -2.65625 C -0.578125 -3.101562 -0.0976562 -3.421875 0.140625 -3.609375 C 0.390625 -3.804688 0.46875 -4.023438 0.375 -4.265625 C 0.34375 -4.347656 0.304688 -4.429688 0.265625 -4.515625 C 0.179688 -4.722656 0.09375 -4.929688 0 -5.140625 C -0.164062 -5.535156 -0.238281 -5.921875 -0.21875 -6.296875 C -0.195312 -6.671875 -0.0546875 -6.988281 0.203125 -7.25 C 0.460938 -7.507812 0.859375 -7.648438 1.390625 -7.671875 C 1.703125 -7.679688 1.976562 -7.640625 2.21875 -7.546875 C 2.457031 -7.453125 2.648438 -7.273438 2.796875 -7.015625 C 2.910156 -6.847656 2.875 -6.691406 2.6875 -6.546875 C 2.5625 -6.441406 2.425781 -6.425781 2.28125 -6.5 C 2.195312 -6.539062 2.109375 -6.597656 2.015625 -6.671875 C 2.015625 -6.691406 2.015625 -6.703125 2.015625 -6.703125 C 1.984375 -6.722656 1.953125 -6.75 1.921875 -6.78125 C 1.878906 -6.832031 1.832031 -6.878906 1.78125 -6.921875 C 1.613281 -7.035156 1.441406 -7.066406 1.265625 -7.015625 C 1.097656 -6.972656 0.972656 -6.84375 0.890625 -6.625 C 0.828125 -6.457031 0.796875 -6.285156 0.796875 -6.109375 C 0.816406 -5.898438 0.867188 -5.691406 0.953125 -5.484375 C 1.003906 -5.359375 1.054688 -5.242188 1.109375 -5.140625 C 1.210938 -4.859375 1.300781 -4.660156 1.375 -4.546875 C 1.445312 -4.441406 1.53125 -4.394531 1.625 -4.40625 C 1.726562 -4.425781 2.65625 -4.757812 4.40625 -5.40625 C 4.78125 -5.53125 4.890625 -5.378906 4.734375 -4.953125 Z M 0.5 -1.21875 C 0.957031 -1.375 1.148438 -1.679688 1.078125 -2.140625 C 1.078125 -2.171875 1.070312 -2.207031 1.0625 -2.25 C 1.03125 -2.5 0.972656 -2.6875 0.890625 -2.8125 C 0.816406 -2.945312 0.644531 -2.941406 0.375 -2.796875 C -0.300781 -2.421875 -0.925781 -1.972656 -1.5 -1.453125 C -1.539062 -1.410156 -1.578125 -1.367188 -1.609375 -1.328125 C -1.609375 -1.328125 -1.613281 -1.316406 -1.625 -1.296875 C -1.664062 -1.242188 -1.671875 -1.1875 -1.640625 -1.125 C -1.617188 -1.0625 -1.5625 -1.03125 -1.46875 -1.03125 C -0.800781 -0.925781 -0.144531 -0.988281 0.5 -1.21875 Z M 0.5 -1.21875 "/></g></g></g><g fill="#03045e" fill-opacity="1"><g transform="translate(201.968084, 232.732763)"><g><path d="M 7.9375 -4.546875 C 7.8125 -4.441406 7.6875 -4.347656 7.5625 -4.265625 C 7.144531 -4.003906 6.765625 -3.796875 6.421875 -3.640625 C 6.085938 -3.492188 5.695312 -3.34375 5.25 -3.1875 C 4.570312 -2.988281 4.132812 -3.035156 3.9375 -3.328125 C 3.75 -3.617188 3.71875 -4.023438 3.84375 -4.546875 C 4.03125 -5.296875 4.132812 -5.84375 4.15625 -6.1875 C 4.1875 -6.53125 4.070312 -6.644531 3.8125 -6.53125 C 3.5625 -6.425781 3.097656 -6.070312 2.421875 -5.46875 C 1.472656 -4.65625 0.664062 -3.722656 0 -2.671875 C -0.0820312 -2.535156 -0.1875 -2.421875 -0.3125 -2.328125 C -0.4375 -2.234375 -0.585938 -2.1875 -0.765625 -2.1875 C -0.941406 -2.1875 -1.066406 -2.234375 -1.140625 -2.328125 C -1.222656 -2.421875 -1.226562 -2.546875 -1.15625 -2.703125 C -0.78125 -3.546875 -0.390625 -4.382812 0.015625 -5.21875 C 0.710938 -6.664062 1.394531 -8.101562 2.0625 -9.53125 C 2.5625 -10.601562 3.054688 -11.675781 3.546875 -12.75 C 3.847656 -13.382812 4.140625 -14.019531 4.421875 -14.65625 C 4.453125 -14.707031 4.484375 -14.757812 4.515625 -14.8125 C 4.535156 -14.882812 4.5625 -14.957031 4.59375 -15.03125 C 4.632812 -15.101562 4.679688 -15.179688 4.734375 -15.265625 C 4.765625 -15.335938 4.832031 -15.394531 4.9375 -15.4375 C 5.050781 -15.488281 5.160156 -15.519531 5.265625 -15.53125 C 5.378906 -15.539062 5.460938 -15.535156 5.515625 -15.515625 C 5.597656 -15.453125 5.644531 -15.382812 5.65625 -15.3125 C 5.664062 -15.25 5.65625 -15.1875 5.625 -15.125 C 5.613281 -15.101562 5.609375 -15.078125 5.609375 -15.046875 C 5.472656 -14.660156 5.335938 -14.289062 5.203125 -13.9375 C 4.367188 -11.945312 3.460938 -9.984375 2.484375 -8.046875 C 2.421875 -7.921875 2.335938 -7.765625 2.234375 -7.578125 C 2.085938 -7.316406 1.953125 -7.0625 1.828125 -6.8125 C 1.710938 -6.5625 1.675781 -6.394531 1.71875 -6.3125 C 1.757812 -6.226562 1.953125 -6.289062 2.296875 -6.5 C 2.398438 -6.570312 2.492188 -6.644531 2.578125 -6.71875 C 2.847656 -6.90625 3.117188 -7.078125 3.390625 -7.234375 C 3.617188 -7.390625 3.878906 -7.472656 4.171875 -7.484375 C 4.859375 -7.535156 5.242188 -7.226562 5.328125 -6.5625 C 5.359375 -6.289062 5.347656 -6.023438 5.296875 -5.765625 C 5.242188 -5.503906 5.179688 -5.25 5.109375 -5 C 5.097656 -4.925781 5.082031 -4.851562 5.0625 -4.78125 C 4.945312 -4.34375 4.976562 -4.085938 5.15625 -4.015625 C 5.34375 -3.953125 5.59375 -3.988281 5.90625 -4.125 C 6.226562 -4.269531 6.554688 -4.4375 6.890625 -4.625 C 7.117188 -4.75 7.316406 -4.851562 7.484375 -4.9375 C 7.660156 -5.019531 7.789062 -5.054688 7.875 -5.046875 C 8.03125 -5.015625 8.101562 -4.945312 8.09375 -4.84375 C 8.082031 -4.75 8.03125 -4.648438 7.9375 -4.546875 Z M 7.9375 -4.546875 "/></g></g></g></svg>