<svg xmlns="http://www.w3.org/2000/svg" width="512" height="512" viewBox="0 0 682.667 682.667" style="enable-background:new 0 0 512 512" xml:space="preserve"><defs><clipPath id="a" clipPathUnits="userSpaceOnUse"><path d="M0 512h512V0H0Z" data-original="#000000"/></clipPath><clipPath id="b" clipPathUnits="userSpaceOnUse"><path d="M0 512h512V0H0Z" data-original="#000000"/></clipPath></defs><g clip-path="url(#a)" transform="matrix(1.33333 0 0 -1.33333 0 682.667)"><path d="M0 0c-49.604 35.66-123.104 35.943-171.574-48.16-142.917-21.997-154.653-158.086-79.877-233.714 75.597-74.749 211.682-63.013 233.707 79.88C67.32-152.899 66.073-78.207 29.139-28.601z" style="fill-opacity:1;fill-rule:evenodd;stroke:none" transform="translate(837.089 334.728)" fill="#ffbc85" data-original="#ffbc85"/></g><g clip-path="url(#b)" transform="matrix(1.33333 0 0 -1.33333 0 682.667)"><path d="m0 0-273.372-45.043c-8.277-1.361-13.918-9.242-12.558-17.519l65.509-397.653c1.36-8.277 9.241-13.918 17.518-12.557l273.4 45.043c8.249 1.361 13.918 9.241 12.558 17.519L17.518-12.558C16.157-4.28 8.277 1.361 0 0" style="fill-opacity:1;fill-rule:evenodd;stroke:none" transform="translate(293.632 487.683)" fill="#ffc243" data-original="#ffc243"/><path d="m0 0-50.06-8.249c7.995-32.429 14.288-75.63 18.085-125.379L0-149.19Zm-34.753-387.731c-2.211-21.232-4.875-40.905-7.936-58.65l209.876 34.583c3.033.51 5.726 1.871 7.824 3.855H15.052C6.774-407.943 0-401.167 0-392.89v122.629c-9.326.085-18.708 1.191-28.034 3.458-.369-28.63-1.531-56.127-3.345-81.951a1278.933 1278.933 0 0 0-3.374-38.977" style="fill-opacity:1;fill-rule:evenodd;stroke:none" transform="translate(196.942 471.752)" fill="#fea610" data-original="#fea610"/><path d="M0 0h277.454c8.277 0 15.052-6.775 15.052-15.052v-403.379c0-8.277-6.775-15.053-15.052-15.053H0c-8.277 0-15.052 6.776-15.052 15.053v403.379C-15.052-6.775-8.277 0 0 0" style="fill-opacity:1;fill-rule:evenodd;stroke:none" transform="translate(211.994 497.293)" fill="#f9f7f8" data-original="#f9f7f8"/><path d="M0 0a392.614 392.614 0 0 0-7.143-31.239c-5.102-18.68-11.48-36.227-18.935-52.357-2.835-6.123-5.812-12.047-8.958-17.745-3.883-7.058-7.993-13.805-12.33-20.155-3.431-5.074-6.974-9.893-10.658-14.457-14.712-18.283-31.38-32.655-49.38-42.124H25.172c8.277 0 15.052 6.776 15.052 15.053v403.379c0 8.277-6.775 15.052-15.052 15.052h-59.329a314.264 314.264 0 0 0 7.313-14.485C-5.584 195.68 7.03 139.156 7.03 77.841c0-4.507-.085-8.986-.198-13.437C6.151 42.124 3.799 20.552 0 0" style="fill-opacity:1;fill-rule:evenodd;stroke:none" transform="translate(464.276 241.885)" fill="#e5e1e5" data-original="#e5e1e5"/><path d="M0 0h193.406" style="stroke-width:15;stroke-linecap:round;stroke-linejoin:round;stroke-miterlimit:10;stroke-dasharray:none;stroke-opacity:1" transform="translate(254.004 158.29)" fill="none" stroke="#000" stroke-width="15" stroke-linecap="round" stroke-linejoin="round" stroke-miterlimit="10" data-original="#000000"/><path d="M0 0h75.146" style="stroke-width:15;stroke-linecap:round;stroke-linejoin:round;stroke-miterlimit:10;stroke-dasharray:none;stroke-opacity:1" transform="translate(254.004 120.39)" fill="none" stroke="#000" stroke-width="15" stroke-linecap="round" stroke-linejoin="round" stroke-miterlimit="10" data-original="#000000"/><path d="M0 0h75.117" style="stroke-width:15;stroke-linecap:round;stroke-linejoin:round;stroke-miterlimit:10;stroke-dasharray:none;stroke-opacity:1" transform="translate(372.293 120.39)" fill="none" stroke="#000" stroke-width="15" stroke-linecap="round" stroke-linejoin="round" stroke-miterlimit="10" data-original="#000000"/><path d="M0 0c11.793-24.322 33.931-24.322 39.401-12.813 4.452 9.326-2.04 26.193-33.731 43.825l7.143 15.421c2.41 5.187.142 11.395-5.045 13.804L.171 63.781c-5.188 2.409-11.396.141-13.805-5.046l-5.301-11.452-1.871-3.969c-33.93 12.813-50.995 6.889-55.247-2.494-5.272-11.623 9.015-28.517 35.235-21.856 3.089-6.406 8.419-11.622 14.712-15.109C-18.17-.539-8.674-2.211 0 0" style="fill-opacity:1;fill-rule:evenodd;stroke:none" transform="translate(397.492 356.606)" fill="#6fd7a3" data-original="#6fd7a3"/><path d="M0 0c1.758-1.219 25.002-10.63 27.666-37.985 5.981-.029 10.998 2.778 13.237 7.484 4.451 9.326-2.04 26.192-33.731 43.824l7.143 15.421c2.41 5.188.142 11.396-5.045 13.805l-2.807 1.304-8.107-17.774C-7.512 13.777-10.403 7.398 0 0" style="fill-opacity:1;fill-rule:evenodd;stroke:none" transform="translate(395.99 374.294)" fill="#3ec3a4" data-original="#3ec3a4"/><path d="M0 0c-15.562-3.94-33.816 4.536-40.818 18.964-26.22-6.661-40.507 10.233-35.235 21.856-18.453-6.067-34.866-20.864-47.309-47.652-18.539-39.913-8.051-120.446 30.841-138.985 36.424-17.349 108.764 28.885 126.055 66.133 12.445 26.788 13.153 48.871 5.867 66.871C33.931-24.322 11.793-24.322 0 0" style="fill-opacity:1;fill-rule:evenodd;stroke:none" transform="translate(397.492 356.606)" fill="#ec5469" data-original="#ec5469"/><path d="M0 0c-9.128-19.645-33.534-41.783-59.924-55.787-23.67-12.558-48.926-18.567-66.16-10.346-1.503.708-2.948 1.53-4.366 2.409 6.123-10.573 13.975-18.907 23.585-23.5 11.338-5.414 26.191-4.649 41.782.114C-30.699-76.622 7.285-46.716 19.19-21.09c12.445 26.788 13.153 48.87 5.868 66.871-2.24-4.706-7.256-7.512-13.238-7.484-.453.029-.935.029-1.388.057C9.808 26.816 6.52 14.032 0 0" style="fill-opacity:1;fill-rule:evenodd;stroke:none" transform="translate(411.836 298.012)" fill="#e5374e" data-original="#e5374e"/><path d="M0 0c2.409 5.187.142 11.396-5.046 13.805l-7.597 3.543c-5.187 2.41-11.395.142-13.804-5.046l-7.172-15.42C-67.55 9.694-84.614 3.77-88.866-5.613c-5.273-11.622 9.014-28.517 35.234-21.856 7.002-14.428 25.257-22.904 40.819-18.964 11.792-24.321 33.93-24.321 39.401-12.813 4.451 9.327-2.04 26.193-33.732 43.825z" style="stroke-width:15;stroke-linecap:round;stroke-linejoin:round;stroke-miterlimit:10;stroke-dasharray:none;stroke-opacity:1" transform="translate(410.306 403.039)" fill="none" stroke="#000" stroke-width="15" stroke-linecap="round" stroke-linejoin="round" stroke-miterlimit="10" data-original="#000000"/><path d="M0 0v.397" style="stroke-width:15;stroke-linecap:round;stroke-linejoin:round;stroke-miterlimit:10;stroke-dasharray:none;stroke-opacity:1" transform="translate(318.633 337.642)" fill="none" stroke="#000" stroke-width="15" stroke-linecap="round" stroke-linejoin="round" stroke-miterlimit="10" data-original="#000000"/><path d="M0 0v.397" style="stroke-width:15;stroke-linecap:round;stroke-linejoin:round;stroke-miterlimit:10;stroke-dasharray:none;stroke-opacity:1" transform="translate(308.23 297.729)" fill="none" stroke="#000" stroke-width="15" stroke-linecap="round" stroke-linejoin="round" stroke-miterlimit="10" data-original="#000000"/><path d="M0 0v.396" style="stroke-width:15;stroke-linecap:round;stroke-linejoin:round;stroke-miterlimit:10;stroke-dasharray:none;stroke-opacity:1" transform="translate(325.267 259.319)" fill="none" stroke="#000" stroke-width="15" stroke-linecap="round" stroke-linejoin="round" stroke-miterlimit="10" data-original="#000000"/><path d="M0 0v.397" style="stroke-width:15;stroke-linecap:round;stroke-linejoin:round;stroke-miterlimit:10;stroke-dasharray:none;stroke-opacity:1" transform="translate(351.77 314.34)" fill="none" stroke="#000" stroke-width="15" stroke-linecap="round" stroke-linejoin="round" stroke-miterlimit="10" data-original="#000000"/><path d="m0 0 .028.397" style="stroke-width:15;stroke-linecap:round;stroke-linejoin:round;stroke-miterlimit:10;stroke-dasharray:none;stroke-opacity:1" transform="translate(392.22 302.86)" fill="none" stroke="#000" stroke-width="15" stroke-linecap="round" stroke-linejoin="round" stroke-miterlimit="10" data-original="#000000"/><path d="M0 0v.397" style="stroke-width:15;stroke-linecap:round;stroke-linejoin:round;stroke-miterlimit:10;stroke-dasharray:none;stroke-opacity:1" transform="translate(368.41 271.678)" fill="none" stroke="#000" stroke-width="15" stroke-linecap="round" stroke-linejoin="round" stroke-miterlimit="10" data-original="#000000"/><path d="M0 0c-5.244-43.74 55.275-99.952 82.8-129.234v-32.118c-17.887.142-36.057 4.167-53.263 12.53C-31.322-119.2-56.947-46.518-27.723 13.521z" style="fill-opacity:1;fill-rule:evenodd;stroke:none" transform="translate(114.143 362.842)" fill="#6fd7a3" data-original="#6fd7a3"/><path d="m0 0 82.8-40.281v-88.953c-13.011.283-26.192 3.316-38.693 9.411C-.907-97.911-20.296-44.675 0 0" style="fill-opacity:1;fill-rule:evenodd;stroke:none" transform="translate(114.143 362.842)" fill="#ec5469" data-original="#ec5469"/><path d="M0 0c-18.453-6.066-34.866-20.864-47.31-47.651-18.539-39.913-8.05-120.447 30.841-138.986 36.425-17.349 108.765 28.886 126.056 66.134 12.444 26.787 13.152 48.87 5.867 66.87" style="stroke-width:15;stroke-linecap:round;stroke-linejoin:round;stroke-miterlimit:10;stroke-dasharray:none;stroke-opacity:1" transform="translate(321.44 397.426)" fill="none" stroke="#000" stroke-width="15" stroke-linecap="round" stroke-linejoin="round" stroke-miterlimit="10" data-original="#000000"/><path d="m0 0-31.975 15.563a1356.017 1356.017 0 0 0 3.062-54.455c.255-6.747.453-13.55.624-20.439.17-8.135.311-16.356.368-24.662A92.115 92.115 0 0 1 0-88.953z" style="fill-opacity:1;fill-rule:evenodd;stroke:none" transform="translate(196.942 322.561)" fill="#e5374e" data-original="#e5374e"/><path d="M0 0a92.115 92.115 0 0 0-27.921 4.96c.028-3.968.057-7.937.057-11.962 0-7.285-.057-14.514-.17-21.657C-18.708-30.927-9.326-32.032 0-32.117z" style="fill-opacity:1;fill-rule:evenodd;stroke:none" transform="translate(196.942 233.608)" fill="#3ec3a4" data-original="#3ec3a4"/><path d="m0 0-80.305-13.238" style="stroke-width:15;stroke-linecap:round;stroke-linejoin:round;stroke-miterlimit:10;stroke-dasharray:none;stroke-opacity:1" transform="translate(196.942 128.157)" fill="none" stroke="#000" stroke-width="15" stroke-linecap="round" stroke-linejoin="round" stroke-miterlimit="10" data-original="#000000"/><path d="m0 0-74.126-12.218" style="stroke-width:15;stroke-linecap:round;stroke-linejoin:round;stroke-miterlimit:10;stroke-dasharray:none;stroke-opacity:1" transform="translate(196.942 89.747)" fill="none" stroke="#000" stroke-width="15" stroke-linecap="round" stroke-linejoin="round" stroke-miterlimit="10" data-original="#000000"/><path d="m0 0-64.232-10.574c-8.278-1.361-13.918-9.241-12.558-17.518l65.509-397.653c1.36-8.277 9.241-13.919 17.517-12.558l273.401 45.044c3.033.51 5.726 1.871 7.824 3.855H127.502c-8.277 0-15.052 6.775-15.052 15.052m0 392.891L33.987 5.612" style="stroke-width:15;stroke-linecap:round;stroke-linejoin:round;stroke-miterlimit:10;stroke-dasharray:none;stroke-opacity:1" transform="translate(84.492 453.213)" fill="none" stroke="#000" stroke-width="15" stroke-linecap="round" stroke-linejoin="round" stroke-miterlimit="10" data-original="#000000"/><path d="m0 0-1.134-2.296" style="stroke-width:15;stroke-linecap:round;stroke-linejoin:round;stroke-miterlimit:10;stroke-dasharray:none;stroke-opacity:1" transform="translate(169.078 285.795)" fill="none" stroke="#000" stroke-width="15" stroke-linecap="round" stroke-linejoin="round" stroke-miterlimit="10" data-original="#000000"/><path d="m0 0-1.134-2.296" style="stroke-width:15;stroke-linecap:round;stroke-linejoin:round;stroke-miterlimit:10;stroke-dasharray:none;stroke-opacity:1" transform="translate(146.458 308.784)" fill="none" stroke="#000" stroke-width="15" stroke-linecap="round" stroke-linejoin="round" stroke-miterlimit="10" data-original="#000000"/><path d="M0 0c-20.353-44.703-.964-97.996 44.079-119.908 12.501-6.095 25.682-9.128 38.692-9.411" style="stroke-width:15;stroke-linecap:round;stroke-linejoin:round;stroke-miterlimit:10;stroke-dasharray:none;stroke-opacity:1" transform="translate(114.17 362.927)" fill="none" stroke="#000" stroke-width="15" stroke-linecap="round" stroke-linejoin="round" stroke-miterlimit="10" data-original="#000000"/><path d="m0 0-110.522 53.803c-29.225-60.039-3.6-132.721 57.259-162.344C-36.057-116.903-17.887-120.929 0-121.07z" style="stroke-width:15;stroke-linecap:round;stroke-linejoin:round;stroke-miterlimit:10;stroke-dasharray:none;stroke-opacity:1" transform="translate(196.942 322.561)" fill="none" stroke="#000" stroke-width="15" stroke-linecap="round" stroke-linejoin="round" stroke-miterlimit="10" data-original="#000000"/><path d="M0 0v-190.748c0-8.277-6.774-15.052-15.052-15.052h-277.454c-8.277 0-15.052 6.775-15.052 15.052v403.379c0 8.278 6.775 15.053 15.052 15.053h277.454c8.278 0 15.052-6.775 15.052-15.053V34.611" style="stroke-width:15;stroke-linecap:round;stroke-linejoin:round;stroke-miterlimit:10;stroke-dasharray:none;stroke-opacity:1" transform="translate(504.5 269.609)" fill="none" stroke="#000" stroke-width="15" stroke-linecap="round" stroke-linejoin="round" stroke-miterlimit="10" data-original="#000000"/></g></svg>