<svg xmlns="http://www.w3.org/2000/svg" width="512" height="512" viewBox="0 0 495.64 495.64" style="enable-background:new 0 0 512 512" xml:space="preserve"><path d="m310.696 54.585-6.531 78.096a8 8 0 0 1-3.633 6.054l-48.372 31.231a8.003 8.003 0 0 1-8.679 0l-48.372-31.231a8.002 8.002 0 0 1-3.633-6.054l-6.531-78.096c-.39-4.665 3.291-8.667 7.972-8.667h30.903a8 8 0 0 1 8 8v70.047c0 9.093 7.584 16.414 16.773 15.982 8.606-.405 15.227-7.818 15.227-16.434V53.918a8 8 0 0 1 8-8h30.904c4.681 0 8.362 4.002 7.972 8.667zM52.247 219.611a8 8 0 0 1-4.514-8.185L68.84 36.238c3.994-33.202 43.952-48.006 68.62-25.39l12.687 11.626 10.423 124.634a16 16 0 0 0 7.266 12.108l60.324 38.948a8 8 0 0 1 3.661 6.721v19.208c0 9.093 7.584 16.414 16.773 15.982 8.606-.405 15.227-7.818 15.227-16.434v-18.756a8 8 0 0 1 3.661-6.721l60.324-38.948a16 16 0 0 0 7.266-12.108l10.423-124.634 12.687-11.626c24.636-22.607 64.624-7.832 68.62 25.39l21.108 175.188a8 8 0 0 1-4.514 8.185L264.11 304.652h-32.58zm249.239 37.768c4.69 0 3.598-.038 42.901-18.29 8.015-3.722 11.494-13.236 7.772-21.25-3.721-8.015-13.234-11.494-21.251-7.773l-36.173 16.798c-15.512 7.203-10.28 30.515 6.751 30.515zm-150.233-18.29 36.173 16.798c8.021 3.723 17.531.237 21.251-7.773 3.722-8.015.242-17.529-7.772-21.25l-36.173-16.798c-8.02-3.723-17.529-.241-21.251 7.773s-.243 17.528 7.772 21.25zm177.776 149.867 22.814 55.102c2.337 5.644 9.863 6.678 13.674 1.904a129.545 129.545 0 0 0 16.043-25.774l32.396-68.971c3.283-6.989-4.262-14.113-11.052-10.435l-70.294 38.079a8.001 8.001 0 0 0-3.581 10.095zM163.03 378.861l-70.295-38.079c-6.79-3.678-14.334 3.446-11.052 10.435 35.003 74.521 36.203 79.42 48.439 94.745 3.811 4.774 11.337 3.739 13.674-1.904l22.814-55.102a7.998 7.998 0 0 0-3.58-10.095zm128.159 2.354c-3.135-7.571-.043-16.286 7.162-20.189l143.883-77.943a8.073 8.073 0 0 0 3.926-4.981 130.808 130.808 0 0 0 2.637-11.712c1.129-6.368-5.479-11.325-11.321-8.553-175.69 83.336-164.614 78.816-169.763 78.816-43.07 0-42.293.519-46.643-1.544L58.165 257.836c-5.843-2.772-12.45 2.186-11.321 8.553 2.172 12.247 3.227 14.887 6.563 16.694l143.883 77.943c7.205 3.903 10.297 12.618 7.162 20.189l-36.767 88.8a8.008 8.008 0 0 0 3.633 10.131c18.612 9.904 39.643 15.402 61.423 15.402 33.975 0 58.428 2.241 91.583-15.401a8.009 8.009 0 0 0 3.633-10.131z" fill="#03045e" data-original="#000000"/></svg>