<svg xmlns="http://www.w3.org/2000/svg" width="512" height="512" viewBox="0 0 512 512" style="enable-background:new 0 0 512 512" xml:space="preserve"><g fill="#03045e"><path d="M256 90c-91.533 0-166 74.467-166 166s74.467 166 166 166 166-74.467 166-166S347.533 90 256 90zm79.536 277.227L256 325.413l-79.536 41.814 15.19-88.565-64.347-62.722 88.925-12.921L256 122.44l39.768 80.579 88.925 12.921-64.347 62.722z" data-original="#000000"/><path d="M275.846 230.439 256 190.227l-19.846 40.212-44.378 6.449 32.113 31.3-7.581 44.198L256 291.519l39.692 20.867-7.581-44.198 32.113-31.3z" data-original="#000000"/><path d="M437.02 74.98C388.667 26.629 324.38 0 256 0S123.333 26.629 74.98 74.98C26.629 123.333 0 187.62 0 256s26.629 132.667 74.98 181.02C123.333 485.371 187.62 512 256 512s132.667-26.629 181.02-74.98C485.371 388.667 512 324.38 512 256s-26.629-132.667-74.98-181.02zM256 452c-108.075 0-196-87.925-196-196S147.925 60 256 60s196 87.925 196 196-87.925 196-196 196z" data-original="#000000"/></g></svg>