<svg xmlns="http://www.w3.org/2000/svg" width="512" height="512" viewBox="0 0 8.467 8.467" style="enable-background:new 0 0 512 512" xml:space="preserve">
  <g fill="#03045e" fill-rule="evenodd">
    <path d="m1.19.53-.048.92.766.505.454-.34a.132.132 0 0 1 .174.011l.17.171.172-.17a.132.132 0 0 1 .187 0l.197.196.443-.222a.132.132 0 0 1 .16.032l.268.307.03-.236a.132.132 0 0 1 .19-.103l.473.237.539-.239a.132.132 0 0 1 .12.006l.405.232.548-.238a.132.132 0 0 1 .137.02l.335.278.44-.189L7.294.53z" data-original="#3b3c3d"/>
    <path d="m1.128 1.76-.2 3.816a.53.53 0 0 0 .101.34l1.456 1.816c.1.137.26.218.43.218h2.65c.17 0 .33-.081.43-.218l1.456-1.816a.53.53 0 0 0 .101-.34l-.175-3.583-.426.182a.133.133 0 0 1-.137-.02l-.335-.279-.535.233a.133.133 0 0 1-.119-.007l-.405-.231-.535.237a.133.133 0 0 1-.113-.002l-.363-.182-.043.345a.133.133 0 0 1-.231.07l-.396-.452-.439.219a.133.133 0 0 1-.153-.026l-.17-.17-.172.17a.133.133 0 0 1-.188 0l-.183-.183-.438.329a.133.133 0 0 1-.153.005zm1.13 1.221a.133.133 0 0 1 .038.005l1.256.33a.133.133 0 1 1-.068.257l-1.255-.33a.133.133 0 0 1 .028-.261zm3.978 0a.133.133 0 0 1 .032.262l-1.255.33a.133.133 0 1 1-.068-.256l1.256-.33a.133.133 0 0 1 .035-.006zm-3.45.662a.133.133 0 0 1 .025.003l.46.066a.133.133 0 1 1-.037.261l-.46-.065a.133.133 0 0 1 .01-.264zm2.913 0v.001a.133.133 0 0 1 .015.264l-.46.066a.133.133 0 1 1-.038-.262l.46-.066a.133.133 0 0 1 .023-.003zm-1.852 1.06a.133.133 0 0 1 .039.009l.195.064a.133.133 0 1 1-.083.252l-.195-.065a.133.133 0 0 1 .031-.259.133.133 0 0 1 .013 0zm.782 0a.133.133 0 0 1 .048.259l-.195.065a.133.133 0 1 1-.083-.251l.195-.065a.133.133 0 0 1 .035-.007zM3.87 6.096c.17 0 .244.066.369.066.113 0 .162-.066.331-.066a.64.64 0 0 1 .466.205l.33.404s-.71-.133-1.127-.133c-.417 0-1.192.133-1.192.133l.357-.404a.64.64 0 0 1 .466-.205z" data-original="#3b3c3d"/>
  </g>
</svg>
