<svg xmlns="http://www.w3.org/2000/svg" width="512" height="512" viewBox="0 0 8.467 8.467" style="enable-background:new 0 0 512 512" xml:space="preserve">
  <g fill="#03045e" fill-rule="evenodd">
    <path d="M3.836.678c-1.022 0-1.852.83-1.852 1.852v.272a.53.53 0 0 1-.055.237l-.021.041a.53.53 0 0 0-.056.237v1.022a.53.53 0 0 0 .106.317l.016.02.266-.392a.15.15 0 0 0 .015-.063V2.475a.98.98 0 0 1 .64-.918l.412-.154v-.328a.132.132 0 0 1 .13-.134.132.132 0 0 1 .135.134v.324l.048.47h1.226l.049-.47v-.324a.132.132 0 0 1 .13-.134.132.132 0 0 1 .134.134v.329l.412.153a.98.98 0 0 1 .64.918V4.22a.15.15 0 0 0 .016.064l.256.404.026-.033a.53.53 0 0 0 .106-.317V3.317a.53.53 0 0 0-.056-.237l-.02-.041a.53.53 0 0 1-.057-.237V2.53A1.852 1.852 0 0 0 4.63.678z" data-original="#3b3c3d"/>
    <path d="m3.334 1.676-.347.13a.714.714 0 0 0-.468.669v1.62l.426.199a3.04 3.04 0 0 0 2.577 0l.425-.2v-1.62a.714.714 0 0 0-.468-.669l-.347-.129-.172 1.662a.132.132 0 0 1-.131.118H3.638a.132.132 0 0 1-.132-.118z" data-original="#3b3c3d"/>
    <path d="m3.648 2.133.11 1.058h.951l.11-1.058zm-1.16 2.239c-.005.012-.007.024-.013.035l-.004.007-.011.016.37.6.812.231.277-.221a.132.132 0 0 1 .083-.03h.529a.132.132 0 0 1 .083.03l.277.221.806-.23.312-.596-.015-.023-.003-.006c-.005-.01-.008-.023-.012-.034l-.345.162a3.301 3.301 0 0 1-2.801 0z" data-original="#3b3c3d"/>
    <path d="m2.297 4.671-.156.23.108.143.015.163a.132.132 0 0 1 .005.004l.642.56a.132.132 0 0 1 .007.007c.206.207.378.445.509.706l.204.41.138-.104a.132.132 0 0 1 .08-.027h.793a.132.132 0 0 1 .08.027l.137.104.205-.41c.13-.26.302-.5.508-.706a.132.132 0 0 1 .005-.005l.617-.56a.132.132 0 0 1 .008-.007l.016-.162.096-.128-.141-.222-.268.511a.132.132 0 0 1-.081.066l-.926.265a.132.132 0 0 1-.119-.025l-.295-.236h-.436l-.294.236a.132.132 0 0 1-.12.025L2.71 5.27a.132.132 0 0 1-.077-.058z" data-original="#3b3c3d"/>
    <path d="m2.301 5.591.066.692a.53.53 0 0 0 .106.27l.93 1.222.301-.35h1.058l.29.364.942-1.236a.53.53 0 0 0 .106-.27l.065-.687-.405.369a2.453 2.453 0 0 0-.46.637l-.275.55a.132.132 0 0 1-.198.047l-.229-.172h-.706l-.23.172a.132.132 0 0 1-.197-.047l-.275-.55a2.453 2.453 0 0 0-.459-.636z" data-original="#3b3c3d"/>
  </g>
</svg>
