<svg xmlns="http://www.w3.org/2000/svg" width="512" height="512" viewBox="0 0 512 512" style="enable-background:new 0 0 512 512" xml:space="preserve"><path d="M467.29 217.89c1.81 2.47 2.45 5.59 1.79 8.57l-42.67 192c-1.28 5.76-6.98 9.37-12.71 8.11-5.76-1.28-9.39-6.98-8.11-12.71l40.04-180.23-112.19-10.62c2.47 5.99 4.35 12.44 5.67 19.35l58.07 14.1c2.91.7 5.38 2.6 6.81 5.2 1.45 2.61 1.75 5.7.79 8.54l-64 192c-1.49 4.48-5.65 7.29-10.11 7.29-1.11 0-2.24-.17-3.37-.55-5.59-1.86-8.62-7.89-6.75-13.48l60.34-181.02-39.56-9.6v1.99c0 61.31-31.53 92.84-56.85 118.16-11.97 11.97-23.27 23.26-29.61 35.95-3.63 7.23-15.45 7.23-19.07 0-6.34-12.69-17.65-23.98-29.61-35.95-25.33-25.32-56.86-56.85-56.86-118.16v-1.99l-39.55 9.6 60.33 181.02c1.88 5.59-1.15 11.62-6.74 13.48-5.63 1.9-11.63-1.17-13.48-6.74l-64-192c-.96-2.84-.66-5.93.79-8.54 1.43-2.6 3.9-4.5 6.8-5.2l58.07-14.1c1.32-6.91 3.2-13.36 5.68-19.35l-112.2 10.62 40.05 180.23c1.28 5.73-2.35 11.43-8.11 12.71-5.72 1.24-11.46-2.35-12.71-8.11l-42.67-192c-.66-2.98-.02-6.1 1.79-8.57a10.63 10.63 0 0 1 7.62-4.35l140.09-13.27c2.18-2.52 4.5-4.89 7-7.09l-84.84-22.72c-2.84-.76-5.25-2.66-6.64-5.24-1.38-2.59-1.66-5.64-.72-8.43l42.66-128c1.86-5.59 7.83-8.62 13.49-6.74 5.59 1.85 8.62 7.89 6.74 13.48L109.7 152.78l79.51 21.29-35.61-26.71a10.66 10.66 0 0 1-3.71-11.9l21.33-64a10.63 10.63 0 0 1 13.48-6.75c5.59 1.86 8.62 7.9 6.75 13.49l-18.91 56.7 20.74 15.55c-.83-3.73-1.28-7.63-1.28-11.62 0-29.4 23.94-53.34 53.33-53.34 29.4 0 53.34 23.94 53.34 53.34 0 3.99-.45 7.89-1.28 11.62l20.73-15.55-18.9-56.7c-1.88-5.59 1.15-11.63 6.74-13.49 5.66-1.87 11.63 1.16 13.49 6.75l21.33 64a10.66 10.66 0 0 1-3.71 11.9l-35.61 26.71 79.51-21.29-39.08-117.25c-1.88-5.59 1.15-11.63 6.74-13.48a10.621 10.621 0 0 1 13.48 6.74l42.67 128c.94 2.79.66 5.84-.73 8.43a10.64 10.64 0 0 1-6.63 5.24l-84.84 22.7a75.65 75.65 0 0 1 6.99 7.11l140.1 13.27c3.05.29 5.82 1.87 7.62 4.35zM320 266.83c1.54-35.57-18.75-67.01-53.23-72.58-15.21-3.16-27.67-3.16-42.88 0-29.18 5.53-49.38 27.01-52.46 58.8-.49 4.28-.76 8.87-.76 13.78 0 52.46 25.72 78.2 50.6 103.08 8.7 8.7 17.09 17.09 24.06 26.3 6.98-9.21 15.36-17.6 24.07-26.3 24.87-24.88 50.6-50.62 50.6-103.08zm-42.67-128c0-17.65-14.35-32-32-32-17.64 0-32 14.35-32 32 0 17.64 14.36 32 32 32 17.65 0 32-14.36 32-32z" fill="#03045e" data-original="#000000"/></svg>