<svg xmlns="http://www.w3.org/2000/svg" width="512" height="512" viewBox="0 0 7111 7111" style="enable-background:new 0 0 512 512" xml:space="preserve" fill-rule="evenodd">
  <path d="M5123 3893c-31 0-62-12-85-36L3254 2073c-48-47-48-123 0-170L4860 296c23-23 53-35 85-35s63 12 86 35l1784 1784c23 23 35 54 35 86s-12 62-35 85L5209 3857c-24 24-55 36-86 36zm555 259c-17 0-34-4-51-11l-366-171c11-8 22-18 32-28l1607-1606c10-10 19-21 27-33l171 367c22 46 12 100-24 136L5764 4117c-23 23-54 35-86 35zM3141 1850l-171-366c-21-46-11-101 25-137L4305 37c36-36 90-45 136-24l367 171c-12 8-23 17-33 27L3169 1818c-10 10-20 21-28 32zM5678 774l281-282c48-47 124-47 171 0l489 489c47 47 47 124 0 171l-282 281zM2880 3572l851-851 660 659-852 851zM907 7109c-32 0-63-12-85-35L37 6289c-47-47-47-123 0-170l337-338 956 956-337 337c-23 23-54 35-86 35zM715 5441l414-414 955 955-414 414zm754-755 415-414 955 955-414 415zm755-755 337-337c48-47 124-47 171 0l785 785c23 23 35 53 35 85s-12 63-35 86l-337 337zm-657 2824c-31 0-62-12-85-36L392 5629c-47-47-47-123 0-171 47-47 123-47 170 0l1091 1091c47 47 47 123 0 170-24 24-55 36-86 36zm755-755c-31 0-62-12-85-35L1146 4874c-47-47-47-123 0-170 48-48 124-48 171 0l1090 1090c48 47 48 123 0 171-23 23-54 35-85 35zm755-755c-31 0-62-12-86-35L1901 4120c-47-48-47-124 0-171s124-47 171 0l1090 1090c47 47 47 124 0 171-23 23-54 35-85 35z" fill="#03045e" data-original="#000000"/>
</svg>
